<mxfile host="app.diagrams.net" modified="2024-04-23T17:06:05.574Z" agent="Mozilla/5.0 (Macintosh; Intel Mac OS X 10_15_7) AppleWebKit/605.1.15 (KHTML, like Gecko) Version/17.4.1 Safari/605.1.15" etag="jOlC7XchjUjbBsoe5ZxN" version="24.2.8" type="github">
  <diagram name="Page-1" id="lA0pkbtwP6XARx1-cM_a">
    <mxGraphModel dx="954" dy="647" grid="1" gridSize="10" guides="1" tooltips="1" connect="1" arrows="1" fold="1" page="1" pageScale="1" pageWidth="827" pageHeight="1169" math="0" shadow="0">
      <root>
        <mxCell id="0" />
        <mxCell id="1" parent="0" />
        <mxCell id="bLHwA8I3_BmHOP531uVi-1" value="IEEE CS" style="whiteSpace=wrap;html=1;aspect=fixed;" vertex="1" parent="1">
          <mxGeometry x="360" y="40" width="80" height="80" as="geometry" />
        </mxCell>
        <mxCell id="bLHwA8I3_BmHOP531uVi-2" value="Tech Team" style="ellipse;whiteSpace=wrap;html=1;" vertex="1" parent="1">
          <mxGeometry x="640" y="225" width="120" height="80" as="geometry" />
        </mxCell>
        <mxCell id="bLHwA8I3_BmHOP531uVi-3" value="Programs" style="ellipse;whiteSpace=wrap;html=1;" vertex="1" parent="1">
          <mxGeometry x="500" y="390" width="120" height="80" as="geometry" />
        </mxCell>
        <mxCell id="bLHwA8I3_BmHOP531uVi-4" value="Tech Team" style="ellipse;whiteSpace=wrap;html=1;" vertex="1" parent="1">
          <mxGeometry x="318" y="210" width="164" height="110" as="geometry" />
        </mxCell>
        <mxCell id="bLHwA8I3_BmHOP531uVi-5" value="Corp" style="ellipse;whiteSpace=wrap;html=1;" vertex="1" parent="1">
          <mxGeometry x="170" y="390" width="120" height="80" as="geometry" />
        </mxCell>
        <mxCell id="bLHwA8I3_BmHOP531uVi-6" value="Crafts" style="ellipse;whiteSpace=wrap;html=1;" vertex="1" parent="1">
          <mxGeometry x="40" y="225" width="120" height="80" as="geometry" />
        </mxCell>
      </root>
    </mxGraphModel>
  </diagram>
</mxfile>
